<?xml version="1.0" encoding="utf-8"?>
<!-- Generator: Adobe Illustrator 26.3.1, SVG Export Plug-In . SVG Version: 6.00 Build 0)  -->
<svg version="1.1" id="Layer_1" xmlns="http://www.w3.org/2000/svg" xmlns:xlink="http://www.w3.org/1999/xlink" x="0px" y="0px"
	 viewBox="0 0 512 512" style="enable-background:new 0 0 512 512;" xml:space="preserve">
<style type="text/css">
	.st0{fill:#0D72B9;}
</style>
<path class="st0" d="M485.3,204.4l-6.7-5c-19.5-14.4-29.4-38.4-25.8-62.4l1.2-8.2c6.3-42.3-30-78.6-72.3-72.3l-0.7,0.1
	c-14.3,2.1-28.6,0.2-41.5-5.1c-12.9-5.3-24.3-14.1-32.9-25.7l-0.4-0.6c-25.4-34.3-76.8-34.3-102.2,0l-0.4,0.6
	c-8.6,11.6-20,20.4-32.9,25.7c-12.9,5.3-27.2,7.2-41.5,5.1l-0.7-0.1c-42.3-6.3-78.6,30-72.3,72.3l1.4,9.4
	c3.5,23.2-6.2,46.5-25.1,60.5l-7.6,5.7c-34.3,25.4-34.3,76.8,0,102.2l6.7,5C50.9,326,60.8,350,57.3,373.9l-1.2,8.2
	c-6.3,42.3,30,78.6,72.3,72.3l0.7-0.1c14.3-2.1,28.6-0.2,41.5,5.1c12.9,5.3,24.3,14.1,32.9,25.7l0.4,0.6
	c25.4,34.3,76.8,34.3,102.2,0l0.4-0.6c8.6-11.6,20-20.4,32.9-25.7c12.9-5.3,27.2-7.2,41.5-5.1l0.7,0.1c42.3,6.3,78.6-30,72.3-72.3
	l-1.4-9.4c-3.5-23.2,6.2-46.5,25.1-60.5l7.6-5.7C519.6,281.2,519.6,229.8,485.3,204.4z M357.4,301h-10.8
	c-25.5,0-46.1,20.6-46.1,46.1v10.8c0,27.4-24.1,49.1-52.3,45c-22.6-3.2-38.8-23.6-38.8-46.5v-9.4c0-25.5-20.6-46.1-46.1-46.1h-10.8
	c-27.4,0-49.1-24.1-45-52.3c3.2-22.6,23.6-38.8,46.5-38.8h9.4c25.5,0,46.1-20.6,46.1-46.1v-10.8c0-27.4,24.1-49.1,52.3-45
	c22.6,3.2,38.8,23.6,38.8,46.5v9.4c0,25.5,20.6,46.1,46.1,46.1h9.4c22.8,0,43.2,16.2,46.5,38.8C406.5,276.9,384.8,301,357.4,301z"/>
</svg>
