<?xml version="1.0" encoding="utf-8"?>
<!-- Generator: Adobe Illustrator 26.3.1, SVG Export Plug-In . SVG Version: 6.00 Build 0)  -->
<svg version="1.1" id="Layer_1" xmlns="http://www.w3.org/2000/svg" xmlns:xlink="http://www.w3.org/1999/xlink" x="0px" y="0px"
	 viewBox="0 0 2169.2 512" style="enable-background:new 0 0 2169.2 512;" xml:space="preserve">
<style type="text/css">
	.st0{fill:#0D72B9;}
	.st1{fill:#4E4E4F;}
</style>
<g>
	<path class="st0" d="M486.3,204.9l-6.7-5c-19.5-14.4-29.4-38.4-25.8-62.4l1.2-8.2c6.3-42.3-30-78.6-72.3-72.3l-0.7,0.1
		c-14.3,2.1-28.6,0.2-41.5-5.1S316.2,38,307.6,26.3l-0.4-0.6c-25.4-34.3-76.8-34.3-102.2,0l-0.4,0.6c-8.6,11.6-20,20.4-32.9,25.7
		c-12.9,5.3-27.2,7.2-41.5,5.1l-0.7-0.1c-42.3-6.3-78.6,30-72.3,72.3l1.4,9.4c3.5,23.2-6.2,46.5-25.1,60.5l-7.6,5.7
		c-34.3,25.4-34.3,76.8,0,102.2l6.7,5c19.5,14.4,29.4,38.4,25.8,62.4l-1.2,8.2c-6.3,42.3,30,78.6,72.3,72.3l0.7-0.1
		c14.3-2.1,28.6-0.2,41.5,5.1c12.9,5.3,24.3,14.1,32.9,25.7l0.4,0.6c25.4,34.3,76.8,34.3,102.2,0l0.4-0.6
		c8.6-11.6,20-20.4,32.9-25.7c12.9-5.3,27.2-7.2,41.5-5.1l0.7,0.1c42.3,6.3,78.6-30,72.3-72.3l-1.4-9.4
		c-3.5-23.2,6.2-46.5,25.1-60.5l7.6-5.7C520.6,281.7,520.6,230.3,486.3,204.9z M358.4,301.5h-10.8c-25.5,0-46.1,20.6-46.1,46.1v10.8
		c0,27.4-24.1,49.1-52.3,45c-22.6-3.2-38.8-23.6-38.8-46.5v-9.4c0-25.5-20.6-46.1-46.1-46.1h-10.8c-27.4,0-49.1-24.1-45-52.3
		c3.2-22.6,23.6-38.8,46.5-38.8h9.4c25.5,0,46.1-20.6,46.1-46.1v-10.8c0-27.4,24.1-49.1,52.3-45c22.6,3.2,38.8,23.6,38.8,46.5v9.4
		c0,25.5,20.6,46.1,46.1,46.1h9.4c22.8,0,43.2,16.2,46.5,38.8C407.5,277.4,385.8,301.5,358.4,301.5z"/>
	<g>
		<path class="st1" d="M955.2,131.8c-69.1,0-124.9,55.3-124.9,123.4c0,68.6,56.3,123.9,124.9,123.9c69.6,0,126-55.8,126-123.9
			C1081.2,187.6,1024.9,131.8,955.2,131.8z M1020.3,256.3c0,38.4-28.7,68.6-65,68.6c-35.3,0-64.5-30.7-64.5-68.6
			s29.2-69.1,64.5-69.1C991.1,187.1,1020.3,217.9,1020.3,256.3z"/>
		<path class="st1" d="M1317.2,152.3c-18.9-13.3-42-20.5-67.6-20.5c-29.2,0-53.8,9.2-72.7,27.1v-22.5c0,0-48.6,0-60.9,0
			c0,152.6,0,313.9,0,313.9s0,11.8,0,23.6c11.8,0,24.1,0,24.1,0h36.9V352.5c13.8,13.3,30.2,21.5,49.7,25.1c7.2,1.5,14.8,2,22.5,2
			c67.1,0,117.8-53.2,117.8-123.9C1367.4,211.2,1348.5,173.8,1317.2,152.3z M1306.5,255.7c0,34.3-19.5,69.1-63.5,69.1
			c-38.9,0-66.6-28.2-66.6-68.6c0.5-40.4,27.6-69.1,66.6-69.1C1287,186.6,1306.5,221.4,1306.5,255.7z"/>
		<path class="st1" d="M1577.8,374.5h60.9V38.1c0,0-48.6,0-60.9,0c0,11.8,0,23.6,0,23.6V159c-18.9-17.9-43-27.1-72.2-27.1
			c-68.1,0-117.8,52.2-117.8,123.4c0,65,42.5,115.2,101.9,122.9c5.1,0.5,10.8,1,16.4,1c29.2,0,53.2-9.2,72.2-27.1L1577.8,374.5z
			 M1578.3,255.7c-0.5,40.4-27.6,69.1-66.6,69.1c-43.5,0-63-34.8-63-69.1c0-33.3,20-69.1,63-69.1
			C1550.7,186.6,1577.8,214.8,1578.3,255.7z"/>
		<path class="st1" d="M1799,131.8c-69.1,0-124.9,55.3-124.9,123.4c0,68.6,56.3,123.9,124.9,123.9c69.6,0,126-55.8,126-123.9
			C1925,187.6,1868.6,131.8,1799,131.8z M1864,256.3c0,38.4-28.7,68.6-65,68.6c-35.3,0-64.5-30.7-64.5-68.6s29.2-69.1,64.5-69.1
			C1834.9,187.1,1864,217.9,1864,256.3z"/>
		<path class="st1" d="M2048.9,377.6c8.7,1.5,18.4,2,28.2,2c7.2,0,13.8-0.5,21-1.5c26.1-3.6,49.7-14.8,69.1-33.3
			c-6.7-9.7-12.8-17.9-12.8-17.9l-3.1-4.6c0,0-7.2-10.2-13.8-20c-21,20-49.2,22-58.4,22c-43.5,0-74.2-28.2-74.2-69.1
			c0-40.4,30.7-68.6,74.2-68.6c8.7,0,36.4,1.5,57.3,20.5c6.7-8.7,14.3-18.4,14.3-18.4l3.6-4.6c0,0,7.2-9.2,14.8-18.4
			c-23.6-19.5-49.7-30.7-77.8-33.3c-5.1-0.5-9.7-1-14.8-1c-12.8,0-24.6,1.5-35.8,3.6c-58.9,13.8-96.8,59.9-96.8,123.4
			C1943.9,320.8,1985.9,366.8,2048.9,377.6z"/>
		<path class="st1" d="M650.1,137"/>
		<path class="st1" d="M710,73"/>
		<path class="st1" d="M669.5,283.4c0,8.2,0,12.8,0,12.8c0,66,42.5,80.4,67.6,82.9c0,0,25.1,0,38.4,0c0,0,12.3,0,24.6,0
			c0-8.7,0-16.9,0-16.9s0-11.3,0-17.4c0-2.6,0-4.1,0-4.1s0-8.2,0-16.4c-8.2,0-16.4,0-16.4,0h-34.8c-11.8,0-17.9-8.2-18.4-23.6
			c0-0.5,0-1.5,0-2c0,0,0-21,0-45.1c0-31.2,0-66.6,0-66.6h53.2c0,0,8.2,0,16.4,0c0-8.2,0-16.9,0-16.9v-33.8h-69.6V94
			c0,0,0-10.8,0-21.5c-3.6,0-7.2,0-10.2,0c-6.1,0-10.8,0-10.8,0h-9.2h-30.7v64h-19.5c0,0-8.2,0-16.4,0c0,8.2,0,16.4,0,16.4v17.4
			c0,0,0,8.2,0,16.9c8.2,0,16.4,0,16.4,0h19.5C669.5,187.6,669.5,254.7,669.5,283.4z"/>
		<path class="st1" d="M678.8,91.9"/>
		<path class="st1" d="M700.3,73"/>
	</g>
</g>
</svg>
